<mxfile host="Electron" modified="2023-04-12T12:12:59.831Z" agent="Mozilla/5.0 (Windows NT 10.0; Win64; x64) AppleWebKit/537.36 (KHTML, like Gecko) draw.io/21.1.2 Chrome/106.0.5249.199 Electron/21.4.3 Safari/537.36" etag="InvYcux26iTa_S3KqmId" version="21.1.2" type="device">
  <diagram id="6ML4Jkgosj-4w-sS1kBK" name="第 1 页">
    <mxGraphModel dx="600" dy="359" grid="1" gridSize="10" guides="1" tooltips="1" connect="1" arrows="1" fold="1" page="1" pageScale="1" pageWidth="827" pageHeight="1169" math="0" shadow="0">
      <root>
        <mxCell id="0" />
        <mxCell id="1" parent="0" />
        <mxCell id="ZUbtc3q8OKqQNAepr_qi-1" value="你的远程仓库" style="rounded=0;whiteSpace=wrap;html=1;" parent="1" vertex="1">
          <mxGeometry x="140" y="390" width="160" height="60" as="geometry" />
        </mxCell>
        <mxCell id="ZUbtc3q8OKqQNAepr_qi-2" value="项目发起者的远程仓库" style="whiteSpace=wrap;html=1;" parent="1" vertex="1">
          <mxGeometry x="410" y="390" width="190" height="60" as="geometry" />
        </mxCell>
        <mxCell id="ZUbtc3q8OKqQNAepr_qi-6" value="1.fork(分支)" style="endArrow=open;endFill=1;endSize=12;html=1;rounded=0;entryX=1;entryY=0.25;entryDx=0;entryDy=0;exitX=0;exitY=0.25;exitDx=0;exitDy=0;" parent="1" source="ZUbtc3q8OKqQNAepr_qi-2" target="ZUbtc3q8OKqQNAepr_qi-1" edge="1">
          <mxGeometry x="-0.0909" y="5" width="160" relative="1" as="geometry">
            <mxPoint x="330" y="410" as="sourcePoint" />
            <mxPoint x="490" y="410" as="targetPoint" />
            <mxPoint as="offset" />
          </mxGeometry>
        </mxCell>
        <mxCell id="ZUbtc3q8OKqQNAepr_qi-9" value="6.pull request(拉取请求)" style="endArrow=open;endFill=1;endSize=12;html=1;rounded=0;exitX=1;exitY=0.75;exitDx=0;exitDy=0;entryX=0;entryY=0.75;entryDx=0;entryDy=0;" parent="1" source="ZUbtc3q8OKqQNAepr_qi-1" target="ZUbtc3q8OKqQNAepr_qi-2" edge="1">
          <mxGeometry x="0.0909" y="-15" width="160" relative="1" as="geometry">
            <mxPoint x="350" y="410" as="sourcePoint" />
            <mxPoint x="510" y="410" as="targetPoint" />
            <mxPoint as="offset" />
          </mxGeometry>
        </mxCell>
        <mxCell id="ZUbtc3q8OKqQNAepr_qi-10" value="2.clone(克隆)" style="endArrow=open;endFill=1;endSize=12;html=1;rounded=0;exitX=0.25;exitY=1;exitDx=0;exitDy=0;entryX=0.25;entryY=0;entryDx=0;entryDy=0;" parent="1" source="ZUbtc3q8OKqQNAepr_qi-1" edge="1">
          <mxGeometry x="0.1111" y="-20" width="160" relative="1" as="geometry">
            <mxPoint x="220" y="470" as="sourcePoint" />
            <mxPoint x="180" y="540" as="targetPoint" />
            <mxPoint as="offset" />
          </mxGeometry>
        </mxCell>
        <mxCell id="ZUbtc3q8OKqQNAepr_qi-11" value="5.push(推送)" style="endArrow=open;endFill=1;endSize=12;html=1;rounded=0;entryX=0.75;entryY=1;entryDx=0;entryDy=0;exitX=0.75;exitY=0;exitDx=0;exitDy=0;" parent="1" target="ZUbtc3q8OKqQNAepr_qi-1" edge="1">
          <mxGeometry x="-0.3333" width="160" relative="1" as="geometry">
            <mxPoint x="260" y="540" as="sourcePoint" />
            <mxPoint x="340" y="480" as="targetPoint" />
            <mxPoint as="offset" />
          </mxGeometry>
        </mxCell>
        <mxCell id="ZUbtc3q8OKqQNAepr_qi-12" value="&lt;font style=&quot;font-size: 12px;&quot;&gt;pull(拉取)&lt;/font&gt;" style="endArrow=open;endFill=1;endSize=12;html=1;rounded=0;fontSize=6;exitX=0.5;exitY=1;exitDx=0;exitDy=0;entryX=0.5;entryY=0;entryDx=0;entryDy=0;" parent="1" source="ZUbtc3q8OKqQNAepr_qi-1" edge="1">
          <mxGeometry x="-0.3333" y="10" width="160" relative="1" as="geometry">
            <mxPoint x="330" y="470" as="sourcePoint" />
            <mxPoint x="220" y="540" as="targetPoint" />
            <mxPoint as="offset" />
          </mxGeometry>
        </mxCell>
        <mxCell id="ZUbtc3q8OKqQNAepr_qi-15" value="clone(克隆)" style="endArrow=open;endFill=1;endSize=12;html=1;rounded=0;fontSize=12;exitX=0.25;exitY=1;exitDx=0;exitDy=0;entryX=0.25;entryY=0;entryDx=0;entryDy=0;" parent="1" source="ZUbtc3q8OKqQNAepr_qi-2" edge="1">
          <mxGeometry x="-0.1111" y="-17" width="160" relative="1" as="geometry">
            <mxPoint x="370" y="510" as="sourcePoint" />
            <mxPoint x="457.5" y="540" as="targetPoint" />
            <mxPoint as="offset" />
          </mxGeometry>
        </mxCell>
        <mxCell id="ZUbtc3q8OKqQNAepr_qi-16" value="&lt;font style=&quot;font-size: 12px;&quot;&gt;pull(拉取)&lt;/font&gt;" style="endArrow=open;endFill=1;endSize=12;html=1;rounded=0;fontSize=6;exitX=0.5;exitY=1;exitDx=0;exitDy=0;entryX=0.5;entryY=0;entryDx=0;entryDy=0;" parent="1" source="ZUbtc3q8OKqQNAepr_qi-2" edge="1">
          <mxGeometry x="0.0032" width="160" relative="1" as="geometry">
            <mxPoint x="560" y="450" as="sourcePoint" />
            <mxPoint x="505" y="540" as="targetPoint" />
            <mxPoint as="offset" />
          </mxGeometry>
        </mxCell>
        <mxCell id="ZUbtc3q8OKqQNAepr_qi-17" value="push(推送)" style="endArrow=open;endFill=1;endSize=12;html=1;rounded=0;entryX=0.75;entryY=1;entryDx=0;entryDy=0;exitX=0.75;exitY=0;exitDx=0;exitDy=0;" parent="1" target="ZUbtc3q8OKqQNAepr_qi-2" edge="1">
          <mxGeometry x="0.1111" y="-7" width="160" relative="1" as="geometry">
            <mxPoint x="552.5" y="540" as="sourcePoint" />
            <mxPoint x="570" y="450" as="targetPoint" />
            <mxPoint x="1" as="offset" />
          </mxGeometry>
        </mxCell>
        <mxCell id="k9f0IoyfFihncxm5J47d-1" value="&lt;h1&gt;&lt;font style=&quot;font-size: 14px;&quot;&gt;本地仓库&lt;/font&gt;&lt;/h1&gt;&lt;p&gt;3.修改文件&lt;/p&gt;&lt;p&gt;4.commit提交到本地暂存区&lt;/p&gt;" style="text;html=1;strokeColor=default;fillColor=none;spacing=5;spacingTop=-20;whiteSpace=wrap;overflow=hidden;rounded=0;" vertex="1" parent="1">
          <mxGeometry x="140" y="540" width="180" height="100" as="geometry" />
        </mxCell>
        <mxCell id="k9f0IoyfFihncxm5J47d-2" value="&lt;h1&gt;&lt;font style=&quot;font-size: 14px;&quot;&gt;项目发起者的本地仓库&lt;/font&gt;&lt;/h1&gt;&lt;div&gt;&lt;font style=&quot;font-size: 12px;&quot;&gt;修改文件&lt;/font&gt;&lt;/div&gt;&lt;div&gt;&lt;font style=&quot;font-size: 12px;&quot;&gt;commit提交到本地暂存区&lt;/font&gt;&lt;/div&gt;" style="text;html=1;strokeColor=default;fillColor=none;spacing=5;spacingTop=-20;whiteSpace=wrap;overflow=hidden;rounded=0;" vertex="1" parent="1">
          <mxGeometry x="420" y="540" width="180" height="100" as="geometry" />
        </mxCell>
      </root>
    </mxGraphModel>
  </diagram>
</mxfile>
